HIERARCHY
ROOT Root
{
  OFFSET 0.0 0.0 0.0
  CHANNELS 6 Xposition Yposition Zposition Zrotation Yrotation Xrotation
  JOINT Hips
  {
    OFFSET 0.0 100.0 0.0
    CHANNELS 6 Xposition Yposition Zposition Zrotation Yrotation Xrotation
    JOINT Spine1
    {
      OFFSET 5.003913 -0.037094 -0.013727
      CHANNELS 3 Zrotation Yrotation Xrotation
      JOINT Spine2
      {
        OFFSET 7.125363 -1e-06 0.0
        CHANNELS 3 Zrotation Yrotation Xrotation
        JOINT Chest
        {
          OFFSET 7.594027 1e-06 0.0
          CHANNELS 3 Zrotation Yrotation Xrotation
          JOINT Neck1
          {
            OFFSET 26.313086 -0.460272 -0.181672
            CHANNELS 3 Zrotation Yrotation Xrotation
            JOINT Neck2
            {
              OFFSET 8.045911 0.0 0.0
              CHANNELS 3 Zrotation Yrotation Xrotation
              JOINT Head
              {
                OFFSET 6.432774 0.0 0.0
                CHANNELS 3 Zrotation Yrotation Xrotation
                JOINT HeadEnd
                {
                  OFFSET 16.169773 0.06451 0.00362
                  CHANNELS 3 Zrotation Yrotation Xrotation
                }
                JOINT Jaw
                {
                  OFFSET 0.108741 3.12938 0.002639
                  CHANNELS 3 Zrotation Yrotation Xrotation
                }
                JOINT LeftEye
                {
                  OFFSET 4.45173 8.166359 3.206392
                  CHANNELS 3 Zrotation Yrotation Xrotation
                }
                JOINT RightEye
                {
                  OFFSET 4.436895 8.135758 -3.222429
                  CHANNELS 3 Zrotation Yrotation Xrotation
                }
              }
            }
          }
          JOINT LeftShoulder
          {
            OFFSET 23.218927 5.195579 1.621656
            CHANNELS 3 Zrotation Yrotation Xrotation
            JOINT LeftArm
            {
              OFFSET 15.902118 2e-06 -2e-06
              CHANNELS 3 Zrotation Yrotation Xrotation
              JOINT LeftForeArm
              {
                OFFSET 28.739307 0.0 -1e-06
                CHANNELS 3 Zrotation Yrotation Xrotation
                JOINT LeftHand
                {
                  OFFSET 27.093981 -4e-06 0.0
                  CHANNELS 3 Zrotation Yrotation Xrotation
                  JOINT LeftHandThumb1
                  {
                    OFFSET 2.276781 3.380274 0.83384
                    CHANNELS 3 Zrotation Yrotation Xrotation
                    JOINT LeftHandThumb2
                    {
                      OFFSET 4.705309 -1e-06 -1e-06
                      CHANNELS 3 Zrotation Yrotation Xrotation
                      JOINT LeftHandThumb3
                      {
                        OFFSET 2.798515 0.0 3e-06
                        CHANNELS 3 Zrotation Yrotation Xrotation
                        JOINT LeftHandThumbEnd
                        {
                          OFFSET 3.180793 4e-06 -4e-06
                          CHANNELS 3 Zrotation Yrotation Xrotation
                        }
                      }
                    }
                  }
                  JOINT LeftHandIndex1
                  {
                    OFFSET 3.247786 2.352677 0.137192
                    CHANNELS 3 Zrotation Yrotation Xrotation
                    JOINT LeftHandIndex2
                    {
                      OFFSET 6.367095 1e-06 0.0
                      CHANNELS 3 Zrotation Yrotation Xrotation
                      JOINT LeftHandIndex3
                      {
                        OFFSET 3.662364 0.0 0.0
                        CHANNELS 3 Zrotation Yrotation Xrotation
                        JOINT LeftHandIndex4
                        {
                          OFFSET 2.329242 4e-06 -4e-06
                          CHANNELS 3 Zrotation Yrotation Xrotation
                          JOINT LeftHandIndexEnd
                          {
                            OFFSET 2.767823 1e-06 0.0
                            CHANNELS 3 Zrotation Yrotation Xrotation
                          }
                        }
                      }
                    }
                  }
                  JOINT LeftHandMiddle1
                  {
                    OFFSET 3.163612 0.945023 -0.406112
                    CHANNELS 3 Zrotation Yrotation Xrotation
                    JOINT LeftHandMiddle2
                    {
                      OFFSET 6.276789 3e-06 0.0
                      CHANNELS 3 Zrotation Yrotation Xrotation
                      JOINT LeftHandMiddle3
                      {
                        OFFSET 4.35652 -1e-06 4e-06
                        CHANNELS 3 Zrotation Yrotation Xrotation
                        JOINT LeftHandMiddle4
                        {
                          OFFSET 2.996877 0.0 8e-06
                          CHANNELS 3 Zrotation Yrotation Xrotation
                          JOINT LeftHandMiddleEnd
                          {
                            OFFSET 2.323256 3e-06 -4e-06
                            CHANNELS 3 Zrotation Yrotation Xrotation
                          }
                        }
                      }
                    }
                  }
                  JOINT LeftHandRing1
                  {
                    OFFSET 2.882606 -0.309162 0.107445
                    CHANNELS 3 Zrotation Yrotation Xrotation
                    JOINT LeftHandRing2
                    {
                      OFFSET 6.033198 0.0 4e-06
                      CHANNELS 3 Zrotation Yrotation Xrotation
                      JOINT LeftHandRing3
                      {
                        OFFSET 4.350578 3e-06 0.0
                        CHANNELS 3 Zrotation Yrotation Xrotation
                        JOINT LeftHandRing4
                        {
                          OFFSET 2.651321 2e-06 -7e-06
                          CHANNELS 3 Zrotation Yrotation Xrotation
                          JOINT LeftHandRingEnd
                          {
                            OFFSET 1.937663 1e-06 -4e-06
                            CHANNELS 3 Zrotation Yrotation Xrotation
                          }
                        }
                      }
                    }
                  }
                  JOINT LeftHandPinky1
                  {
                    OFFSET 2.865315 -1.525436 0.575687
                    CHANNELS 3 Zrotation Yrotation Xrotation
                    JOINT LeftHandPinky2
                    {
                      OFFSET 5.54936 1e-06 -8e-06
                      CHANNELS 3 Zrotation Yrotation Xrotation
                      JOINT LeftHandPinky3
                      {
                        OFFSET 3.070974 0.0 -4e-06
                        CHANNELS 3 Zrotation Yrotation Xrotation
                        JOINT LeftHandPinky4
                        {
                          OFFSET 1.549672 1e-06 0.0
                          CHANNELS 3 Zrotation Yrotation Xrotation
                          JOINT LeftHandPinkyEnd
                          {
                            OFFSET 1.952123 0.0 0.0
                            CHANNELS 3 Zrotation Yrotation Xrotation
                          }
                        }
                      }
                    }
                  }
                }
              }
            }
          }
          JOINT RightShoulder
          {
            OFFSET 23.161716 5.296122 -1.380114
            CHANNELS 3 Zrotation Yrotation Xrotation
            JOINT RightArm
            {
              OFFSET -16.027195 -2e-06 1.1e-05
              CHANNELS 3 Zrotation Yrotation Xrotation
              JOINT RightForeArm
              {
                OFFSET -28.736639 4e-06 2e-06
                CHANNELS 3 Zrotation Yrotation Xrotation
                JOINT RightHand
                {
                  OFFSET -27.133619 6e-06 0.0
                  CHANNELS 3 Zrotation Yrotation Xrotation
                  JOINT RightHandThumb1
                  {
                    OFFSET -2.274328 -3.351035 -0.83067
                    CHANNELS 3 Zrotation Yrotation Xrotation
                    JOINT RightHandThumb2
                    {
                      OFFSET -4.703594 -3e-06 2e-06
                      CHANNELS 3 Zrotation Yrotation Xrotation
                      JOINT RightHandThumb3
                      {
                        OFFSET -2.794935 -4e-06 -3e-06
                        CHANNELS 3 Zrotation Yrotation Xrotation
                        JOINT RightHandThumbEnd
                        {
                          OFFSET -3.183852 4e-06 1e-06
                          CHANNELS 3 Zrotation Yrotation Xrotation
                        }
                      }
                    }
                  }
                  JOINT RightHandIndex1
                  {
                    OFFSET -3.253496 -2.33755 -0.127667
                    CHANNELS 3 Zrotation Yrotation Xrotation
                    JOINT RightHandIndex2
                    {
                      OFFSET -6.344434 0.0 0.0
                      CHANNELS 3 Zrotation Yrotation Xrotation
                      JOINT RightHandIndex3
                      {
                        OFFSET -3.654871 0.0 -8e-06
                        CHANNELS 3 Zrotation Yrotation Xrotation
                        JOINT RightHandIndex4
                        {
                          OFFSET -2.327586 -1e-06 0.0
                          CHANNELS 3 Zrotation Yrotation Xrotation
                          JOINT RightHandIndexEnd
                          {
                            OFFSET -2.770001 3e-06 8e-06
                            CHANNELS 3 Zrotation Yrotation Xrotation
                          }
                        }
                      }
                    }
                  }
                  JOINT RightHandMiddle1
                  {
                    OFFSET -3.168223 -0.944764 0.411762
                    CHANNELS 3 Zrotation Yrotation Xrotation
                    JOINT RightHandMiddle2
                    {
                      OFFSET -6.266691 -1e-06 -4e-06
                      CHANNELS 3 Zrotation Yrotation Xrotation
                      JOINT RightHandMiddle3
                      {
                        OFFSET -4.348901 0.0 0.0
                        CHANNELS 3 Zrotation Yrotation Xrotation
                        JOINT RightHandMiddle4
                        {
                          OFFSET -3.00024 2e-06 -4e-06
                          CHANNELS 3 Zrotation Yrotation Xrotation
                          JOINT RightHandMiddleEnd
                          {
                            OFFSET -2.321477 -4e-06 -4e-06
                            CHANNELS 3 Zrotation Yrotation Xrotation
                          }
                        }
                      }
                    }
                  }
                  JOINT RightHandRing1
                  {
                    OFFSET -2.885654 0.293261 -0.119232
                    CHANNELS 3 Zrotation Yrotation Xrotation
                    JOINT RightHandRing2
                    {
                      OFFSET -6.032835 -1e-06 -4e-06
                      CHANNELS 3 Zrotation Yrotation Xrotation
                      JOINT RightHandRing3
                      {
                        OFFSET -4.33881 0.0 -4e-06
                        CHANNELS 3 Zrotation Yrotation Xrotation
                        JOINT RightHandRing4
                        {
                          OFFSET -2.654903 -4e-06 -4e-06
                          CHANNELS 3 Zrotation Yrotation Xrotation
                          JOINT RightHandRingEnd
                          {
                            OFFSET -1.935122 0.0 4e-06
                            CHANNELS 3 Zrotation Yrotation Xrotation
                          }
                        }
                      }
                    }
                  }
                  JOINT RightHandPinky1
                  {
                    OFFSET -2.866241 1.503904 -0.60527
                    CHANNELS 3 Zrotation Yrotation Xrotation
                    JOINT RightHandPinky2
                    {
                      OFFSET -5.553177 -2e-06 0.0
                      CHANNELS 3 Zrotation Yrotation Xrotation
                      JOINT RightHandPinky3
                      {
                        OFFSET -3.062664 -1e-06 -4e-06
                        CHANNELS 3 Zrotation Yrotation Xrotation
                        JOINT RightHandPinky4
                        {
                          OFFSET -1.546529 2e-06 4e-06
                          CHANNELS 3 Zrotation Yrotation Xrotation
                          JOINT RightHandPinkyEnd
                          {
                            OFFSET -1.952341 0.0 -4e-06
                            CHANNELS 3 Zrotation Yrotation Xrotation
                          }
                        }
                      }
                    }
                  }
                }
              }
            }
          }
        }
      }
    }
    JOINT LeftLeg
    {
      OFFSET -8.443107 2.567604 10.043214
      CHANNELS 3 Zrotation Yrotation Xrotation
      JOINT LeftShin
      {
        OFFSET 43.229198 1e-06 -1e-06
        CHANNELS 3 Zrotation Yrotation Xrotation
        JOINT LeftFoot
        {
          OFFSET 42.298611 1e-06 1e-06
          CHANNELS 3 Zrotation Yrotation Xrotation
          JOINT LeftToeBase
          {
            OFFSET 14.165858 1e-06 0.0
            CHANNELS 3 Zrotation Yrotation Xrotation
            JOINT LeftToeEnd
            {
              OFFSET 6.7141 -0.234461 0.0
              CHANNELS 3 Zrotation Yrotation Xrotation
            }
          }
        }
      }
    }
    JOINT RightLeg
    {
      OFFSET -8.303923 2.592729 -10.047278
      CHANNELS 3 Zrotation Yrotation Xrotation
      JOINT RightShin
      {
        OFFSET -43.369682 0.0 1e-06
        CHANNELS 3 Zrotation Yrotation Xrotation
        JOINT RightFoot
        {
          OFFSET -42.260784 4e-06 2e-06
          CHANNELS 3 Zrotation Yrotation Xrotation
          JOINT RightToeBase
          {
            OFFSET -14.222245 -2e-06 -1e-06
            CHANNELS 3 Zrotation Yrotation Xrotation
            JOINT RightToeEnd
            {
              OFFSET -6.660062 0.232574 -2e-06
              CHANNELS 3 Zrotation Yrotation Xrotation
            }
          }
        }
      }
    }
  }
}
MOTION
Frames: 4
Frame Time: 0.03333333333333333
0.0 0.0 0.0 0.0 -0.0 0.0 2.060687 96.724197 0.086267 91.370354 3.090945 94.006706 -1.565402 0.417324 0.312891 -11.849914 -0.037094 1.368124 25.247309 -1.623588 -0.861631 37.670006 -11.210025 2.370662 -2.356468 -0.420418 1.094701 -17.518347 0.910227 0.593395 7e-06 -0.0 1e-06 -0.074293 -0.051058 0.127787 0.296177 0.023698 0.145257 0.273913 -0.140771 0.112481 -101.229362 -78.408638 116.643814 38.487072 -4.948202 -27.482788 46.574032 -1.1222 -1.621712 15.942595 -0.290573 -26.404184 17.636625 -26.322735 52.411194 -19.46666 -14.395597 29.410393 -0.0 -8.774822 -3e-06 15.067535 -17.336664 6.672831 -0.609776 -1.795653 -3.889328 -4.807086 -11.046809 -2.937851 4e-06 -20.976019 2e-06 -5.019968 -25.033552 -4.03188 5e-06 1e-06 -0.0 -10.634533 -5.686968 -3.565588 10.573276 -17.922949 -3.113901 3e-06 -13.821209 2e-06 -0.501777 -31.181498 -4.027011 -11.911261 -59.718891 8.271512 -13.982712 -7.150196 -2.875044 13.772729 -8.401491 -3.21824 0.347737 -34.211552 0.771653 -0.963028 -17.73337 2.62102 -1e-06 0.0 0.0 -17.346413 -20.095213 -4.201784 21.757557 -1.638376 3.866425 2e-06 -6.338825 1e-06 -1.697588 -22.591742 -6.194005 0.0 -7e-06 -2e-06 -164.481018 -78.271278 -4.449785 44.160366 -19.807966 -21.100298 59.432537 -1.994755 -0.836158 15.695577 6.224725 -19.855743 22.182106 -20.375904 49.933323 -16.701807 -16.74353 28.47653 -5e-06 -12.690601 1e-06 14.482108 -17.050577 3.122783 -0.105919 -1.513855 -4.275882 -5.03904 -5.612871 -2.953554 4e-06 -11.020521 0.0 -6.111295 -15.89533 -3.840471 0.0 -2e-06 -0.0 -10.283369 -5.680287 -4.341841 11.028296 -11.302406 -2.372632 -1.384269 -14.23858 -6.32012 -0.625441 -26.924187 -3.827596 -4.286953 -48.820705 -3.260921 -13.708524 -7.363474 -3.720941 18.141151 -14.052739 -3.242674 6e-06 -18.787271 1e-06 -0.429708 -8.456044 2.555504 1e-06 -0.0 1e-06 -15.923532 -20.094479 -5.473584 30.41921 -7.190827 1.735922 1e-06 -8.162929 0.0 -1.861902 -22.861473 -6.167941 0.0 -3e-06 -2e-06 176.402664 -15.738768 -12.886519 18.263926 -0.135902 0.419096 -71.978737 -12.268536 -23.742079 -4.512243 1.604843 2.158391 -0.999999 -2e-06 -1e-06 2.159764 -19.267324 -17.193686 13.851615 0.010644 0.263823 -70.588379 -12.86488 -25.200329 -4.282402 0.675751 1.67033 -1.000001 0.0 0.0 
0.0 0.0 0.0 0.0 -0.0 0.0 2.119182 96.708435 0.147094 91.390373 2.91529 94.074165 -1.495126 0.391102 0.329358 -11.826689 -0.021892 1.437869 25.232573 -1.701087 -0.84738 37.519623 -11.345405 2.351034 -2.351867 -0.42416 1.087351 -17.792625 0.980734 0.618288 4e-06 -1e-06 1e-06 -0.076178 -0.052954 0.135735 0.310975 0.01938 0.156298 0.2907 -0.140828 0.117927 -101.58049 -78.370811 116.974693 38.478085 -4.825298 -27.697536 46.679062 -1.079784 -1.565398 15.851065 -0.223109 -26.422783 17.636631 -26.322729 52.411201 -19.466663 -14.395597 29.410395 1e-06 -8.774824 -4e-06 15.074849 -17.328457 6.687084 -0.609776 -1.795654 -3.889329 -4.80709 -11.046812 -2.937852 2e-06 -20.976019 0.0 -5.01997 -25.033562 -4.031883 4e-06 1e-06 -0.0 -10.634535 -5.686971 -3.565587 10.573272 -17.922951 -3.113902 2e-06 -13.821209 1e-06 -0.501779 -31.181501 -4.027017 -11.875092 -59.734375 8.240813 -13.982714 -7.150198 -2.875041 13.772729 -8.401492 -3.218241 0.347734 -34.211555 0.771651 -0.963027 -17.733372 2.621019 -1e-06 -1e-06 0.0 -17.346422 -20.095221 -4.201784 21.757563 -1.638373 3.866428 1e-06 -6.338825 -1e-06 -1.697592 -22.591753 -6.194007 0.0 -4e-06 -2e-06 -164.295441 -78.09597 -4.659104 44.135635 -20.047812 -21.307119 59.820225 -1.983051 -0.780631 15.511367 6.216852 -19.512209 22.182114 -20.375898 49.933327 -16.701813 -16.74353 28.476534 -6e-06 -12.690601 1e-06 14.51897 -17.102749 3.132489 -0.10592 -1.513857 -4.275881 -5.039041 -5.612872 -2.953555 4e-06 -11.02052 1e-06 -6.111298 -15.895334 -3.840469 -1e-06 -1e-06 -1e-06 -10.28337 -5.680287 -4.341836 11.028293 -11.302406 -2.372633 -1.384269 -14.238581 -6.32012 -0.625434 -26.924192 -3.827602 -4.316884 -48.840729 -3.228179 -13.708524 -7.363476 -3.72094 18.14115 -14.052739 -3.242675 7e-06 -18.78727 -1e-06 -0.429711 -8.456043 2.555504 0.0 0.0 -0.0 -15.923538 -20.094484 -5.47358 30.419214 -7.190825 1.735924 1e-06 -8.162927 -1e-06 -1.861901 -22.861473 -6.167944 1e-06 -4e-06 -1e-06 176.10585 -15.715178 -12.862479 18.546534 -0.146481 0.429961 -72.128914 -12.258883 -23.696873 -4.486632 1.598404 2.158549 -0.999999 -1e-06 0.0 2.022789 -19.369637 -17.267385 13.924688 0.011487 0.278491 -70.623253 -12.885508 -25.24864 -4.313295 0.67469 1.665059 -1.000001 1e-06 -0.0 
0.0 0.0 0.0 0.0 -0.0 0.0 2.184449 96.696487 0.211174 91.392578 2.703058 94.115227 -1.422413 0.376098 0.329274 -11.804474 -0.011255 1.499457 25.180378 -1.787347 -0.839229 37.311935 -11.395194 2.341046 -2.349437 -0.428969 1.087768 -18.069963 1.011487 0.624325 5e-06 -1e-06 0.0 -0.079187 -0.05163 0.136008 0.311262 0.019232 0.157658 0.289994 -0.137964 0.117732 -101.89785 -78.347198 117.262207 38.349545 -4.775655 -28.0168 46.705803 -1.071736 -1.477618 15.765683 -0.173002 -26.602415 17.636629 -26.322733 52.411182 -19.46666 -14.395598 29.410385 0.0 -8.774819 -3e-06 15.074618 -17.306345 6.694313 -0.609776 -1.795654 -3.889327 -4.807086 -11.046809 -2.937852 4e-06 -20.976015 3e-06 -5.01997 -25.033552 -4.031876 6e-06 -1e-06 -0.0 -10.634532 -5.686968 -3.565585 10.573274 -17.922947 -3.1139 2e-06 -13.821206 2e-06 -0.501777 -31.181498 -4.027013 -11.795765 -59.67065 8.17415 -13.982712 -7.150196 -2.875044 13.772727 -8.401491 -3.218239 0.347736 -34.211544 0.771652 -0.963029 -17.733366 2.621021 -1e-06 -1e-06 1e-06 -17.346413 -20.095213 -4.201782 21.757555 -1.638376 3.866428 2e-06 -6.338823 1e-06 -1.697587 -22.59174 -6.194005 -1e-06 -2e-06 -3e-06 -164.411728 -77.975769 -4.59685 44.095119 -20.389544 -21.406286 60.24649 -1.882937 -0.732173 15.278037 6.221143 -19.174507 22.182117 -20.37591 49.933323 -16.701815 -16.743532 28.47653 -3e-06 -12.690604 1e-06 14.549027 -17.164501 3.138608 -0.105919 -1.513856 -4.275883 -5.039041 -5.612869 -2.953555 2e-06 -11.02052 0.0 -6.111296 -15.895332 -3.840469 -1e-06 -2e-06 1e-06 -10.283371 -5.680287 -4.341835 11.028294 -11.302404 -2.372632 -1.384271 -14.238577 -6.320119 -0.625441 -26.924187 -3.827598 -4.354529 -48.838848 -3.192583 -13.708526 -7.363477 -3.720938 18.14115 -14.052737 -3.242673 4e-06 -18.78727 -0.0 -0.429713 -8.456044 2.555505 -0.0 -0.0 1e-06 -15.923538 -20.094482 -5.473581 30.419218 -7.190826 1.735925 1e-06 -8.162926 1e-06 -1.861904 -22.861471 -6.167942 1e-06 -3e-06 -2e-06 175.772125 -15.706092 -12.875685 18.834621 -0.154104 0.442152 -72.282959 -12.262295 -23.611946 -4.449355 1.582683 2.156637 -0.999999 -3e-06 0.0 1.863832 -19.453266 -17.404394 13.946851 0.006289 0.297068 -70.610985 -12.821507 -25.297962 -4.322348 0.67051 1.660266 -1.000002 -1e-06 -0.0 
0.0 0.0 0.0 0.0 -0.0 0.0 2.252784 96.687424 0.280158 91.377289 2.464175 94.104408 -1.356311 0.367382 0.312201 -11.782524 -0.012057 1.547407 25.104483 -1.883305 -0.821972 37.066105 -11.400519 2.333244 -2.365835 -0.427244 1.099581 -18.311363 1.010343 0.629443 7e-06 -1e-06 1e-06 -0.083406 -0.045514 0.126266 0.29956 0.025338 0.147106 0.275314 -0.131271 0.109386 -102.14257 -78.325058 117.492149 38.122673 -4.797759 -28.497606 46.659145 -1.102023 -1.38997 15.675614 -0.145451 -26.820719 17.636635 -26.322733 52.411182 -19.466661 -14.3956 29.410381 1e-06 -8.774822 -1e-06 15.091259 -17.275976 6.6795 -0.609776 -1.795654 -3.889328 -4.80709 -11.046813 -2.937848 3e-06 -20.976019 3e-06 -5.019974 -25.033558 -4.03188 6e-06 -1e-06 -1e-06 -10.634537 -5.686973 -3.565587 10.573275 -17.922953 -3.113901 2e-06 -13.821213 0.0 -0.501781 -31.181505 -4.027015 -11.703647 -59.579216 8.088622 -13.982715 -7.150199 -2.87504 13.77273 -8.401492 -3.218243 0.347731 -34.211559 0.771655 -0.963032 -17.73337 2.621022 -1e-06 0.0 1e-06 -17.346422 -20.095222 -4.201779 21.757566 -1.638373 3.866426 0.0 -6.338825 -0.0 -1.697591 -22.591751 -6.194007 0.0 -3e-06 -3e-06 -164.589752 -77.897339 -4.469407 44.029793 -20.844784 -21.446882 60.731884 -1.719674 -0.682809 15.000725 6.227705 -18.801277 22.182119 -20.375895 49.933319 -16.701807 -16.74353 28.476528 -3e-06 -12.690604 0.0 14.5701 -17.201147 3.116652 -0.105918 -1.513857 -4.275881 -5.039041 -5.612871 -2.953557 2e-06 -11.020521 -0.0 -6.1113 -15.895339 -3.840472 -1e-06 -1e-06 0.0 -10.283374 -5.680288 -4.341838 11.028296 -11.302406 -2.372633 -1.384273 -14.238583 -6.32012 -0.62544 -26.924194 -3.827603 -4.381722 -48.827068 -3.182569 -13.708528 -7.363476 -3.72094 18.141151 -14.052739 -3.242671 5e-06 -18.787273 -3e-06 -0.429711 -8.456043 2.555503 1e-06 -1e-06 -0.0 -15.923541 -20.094482 -5.473582 30.419214 -7.190829 1.735929 1e-06 -8.162927 -0.0 -1.861902 -22.861475 -6.167946 0.0 -3e-06 -2e-06 175.4319 -15.714186 -12.930559 19.117018 -0.158503 0.457038 -72.432076 -12.307487 -23.509884 -4.413736 1.558063 2.155482 -0.999999 -0.0 -0.0 1.665824 -19.506741 -17.529005 13.942399 0.002145 0.302466 -70.621078 -12.727163 -25.331846 -4.299034 0.663333 1.657091 -1.000003 -0.0 -0.0 
